<svg width="236" height="192" viewBox="0 0 236 192" fill="none" xmlns="http://www.w3.org/2000/svg">
<path d="M74.3999 191.5C163.1 191.5 211.6 118 211.6 54.3C211.6 52.2 211.6 50.1 211.5 48.1C220.9 41.3 229.1 32.8 235.6 23.1C227 26.9 217.7 29.5 207.9 30.7C217.9 24.7 225.5 15.3 229.1 4C219.8 9.5 209.5 13.5 198.5 15.7C189.7 6.3 177.2 0.5 163.3 0.5C136.7 0.5 115.1 22.1 115.1 48.7C115.1 52.5 115.5 56.2 116.4 59.7C76.2999 57.7 40.8 38.5 17 9.3C12.9 16.4 10.5 24.7 10.5 33.5C10.5 50.2 19 65 32 73.6C24.1 73.4 16.7 71.2 10.2 67.6C10.2 67.8 10.2 68 10.2 68.2C10.2 91.6 26.7999 111 48.8999 115.5C44.8999 116.6 40.6 117.2 36.2 117.2C33.1 117.2 30.1 116.9 27.1 116.3C33.2 135.5 51 149.4 72.1 149.8C55.6 162.7 34.7999 170.4 12.2 170.4C8.29995 170.4 4.49995 170.2 0.699951 169.7C21.8 183.5 47.1999 191.5 74.3999 191.5Z" fill="white"/>
</svg>
